<svg width="116" height="116" viewBox="0 0 116 116" fill="none" xmlns="http://www.w3.org/2000/svg">
<circle opacity="0.8" cx="58" cy="58" r="58" fill="#C4C4C4"/>
<circle cx="58" cy="58" r="49.5" fill="#141316" stroke="black"/>
<path d="M72.5161 38.4744C78.8669 43.028 83 50.4756 83 58.9047C83 72.7476 71.8307 83.9696 58.0504 83.9999C44.2903 84.0303 33.0202 72.7678 33 58.9452C32.9899 50.516 37.123 43.0482 43.4637 38.4845C44.6432 37.6446 46.2863 37.9988 46.9919 39.2637L48.5847 42.1071C49.1794 43.1696 48.8972 44.5155 47.9194 45.244C43.7359 48.3607 41.0645 53.2988 41.0645 58.8946C41.0545 68.2345 48.5746 75.9047 58 75.9047C67.2339 75.9047 74.996 68.3964 74.9355 58.7934C74.9052 53.5518 72.4456 48.4922 68.0706 45.2339C67.0927 44.5053 66.8206 43.1595 67.4153 42.1071L69.0081 39.2637C69.7137 38.0089 71.3468 37.6345 72.5161 38.4744ZM62.0323 59.7143V35.4286C62.0323 34.0827 60.9536 33 59.6129 33H56.3871C55.0464 33 53.9678 34.0827 53.9678 35.4286V59.7143C53.9678 61.0601 55.0464 62.1428 56.3871 62.1428H59.6129C60.9536 62.1428 62.0323 61.0601 62.0323 59.7143Z" fill="#C4C4C4"/>
</svg>
